{"title":"Uncertainty.2009.DVDRiP.XViD.AC3.NiTR0","uid":6135759,"size":1490935491,"categoryP":"video","categoryS":"movies","magnet":"?xt=urn:btih:d7b228ce24db141b8f932b4bd4b56380084c13ef&amp;dn=Uncertainty.2009.DVDRiP.XViD.AC3.NiTR0&amp;tr=udp%3A%2F%2Ftracker.openbittorrent.com%3A80&amp;tr=udp%3A%2F%2Fopen.demonii.com%3A1337&amp;tr=udp%3A%2F%2Ftracker.coppersurfer.tk%3A6969&amp;tr=udp%3A%2F%2Fexodus.desync.com%3A6969","seeders":0,"leechers":3,"uploader":"TvTeam","files":5,"time":1296298647,"description":". \n  &lt;a href=&quot;\nhttp://www.torrentday.com/&quot; rel=&quot;nofollow&quot; target=&quot;_NEW&quot;&gt;\nhttp://www.torrentday.com/&lt;/a&gt;        :     The Hottest Private Tracker On The Net!!!\n &lt;a href=&quot;\nhttp://www.torrentday.com&quot; rel=&quot;nofollow&quot; target=&quot;_NEW&quot;&gt;\nhttp://www.torrentday.com&lt;/a&gt;          :     Once &amp; For all ;)\n\n\n               www . TorrentDay . Com \n\n(((((((((((((= Enjoy No RAR releases =))))))))))))))))))))\n\n\n...................................NFO:....................................\n\n.[color=red][size=4][b]Uncertainty.2009.DVDRiP.XViD.AC3.NiTR0[/b][/size][/color]                     \n\t\n\n\tRuntime______ 101 min\n\tSource_______ Retail Region 1 DVD9                                \n\tIMDB_________ http://www.imdb.com/title/tt1086216/\n\tGenre: Drama | Romance                \n\tPlot: A young couple facing a life-changing decision, Bobby (Joseph Gordon-Levitt) and Kate (Lynn Collins), stand on the Brooklyn Bridge, toss a coin and let the outcome decide their holiday plans.\n\tThe action unfolds in intercutting scenes of both possibilities. This creative cinematic puzzle from filmmakers Scott McGehee and David Siegel (Bee Season) reveals an intricate thriller as well as a tense relationship drama.\n\n[color=red][size=3][b]General[/b][/size][/color]\nComplete name                    : Uncertainty.2009.DVDRiP.XViD.AC3.NiTR0.avi\nFormat                           : AVI\nFormat/Info                      : Audio Video Interleave\nFormat profile                   : OpenDML\nFormat settings                  : rec\nFile size                        : 1.37 GiB\nDuration                         : 1h 45mn\nOverall bit rate                 : 1 859 Kbps\n\n[color=red][size=3][b]Video[/b][/size][/color]\nFormat                           : MPEG-4 Visual\nFormat profile                   : Advanced Simple@L5\nFormat settings, BVOP            : 2\nFormat settings, QPel            : No\nFormat settings, GMC             : No warppoints\nFormat settings, Matrix          : Default (H.263)\nMuxing mode                      : Packed bitstream\nCodec ID                         : XVID\nDuration                         : 1h 45mn\nBit rate                         : 1 405 Kbps\nWidth                            : 720 pixels\nHeight                           : 304 pixels\nDisplay aspect ratio             : 2.35:1\nFrame rate                       : 23.976 fps\nBit depth                        : 8 bits\nScan type                        : Progressive\nStream size                      : 1.03 GiB (76%)\n\n[color=red][size=3][b]Audio[/b][/size][/color]\nFormat                           : AC-3\nFormat/Info                      : Audio Coding 3\nMode extension                   : CM (complete main)\nDuration                         : 1h 45mn\nBit rate mode                    : Constant\nBit rate                         : 448 Kbps\nChannel(s)                       : 6 channels\nChannel positions                : Front: L C R, Side: L R, LFE\nSampling rate                    : 48.0 KHz\nStream size                      : 337 MiB (24%)\nAlignment                        : Aligned on interleaves\nInterleave, duration             : 64 ms (1.53 video frames)\nInterleave, preload duration     : 192 ms\n\n[color=red][size=3][b]Screens:[/b][/size][/color]\n[img][/img]\n[img][/img]\n[img][/img]\n[img][/img]","torrent":{"xt":"urn:btih:d7b228ce24db141b8f932b4bd4b56380084c13ef","amp;dn":"Uncertainty.2009.DVDRiP.XViD.AC3.NiTR0","amp;tr":["udp%3A%2F%2Ftracker.openbittorrent.com%3A80","udp%3A%2F%2Fopen.demonii.com%3A1337","udp%3A%2F%2Ftracker.coppersurfer.tk%3A6969","udp%3A%2F%2Fexodus.desync.com%3A6969"],"infoHash":"d7b228ce24db141b8f932b4bd4b56380084c13ef","infoHashBuffer":{"type":"Buffer","data":[215,178,40,206,36,219,20,27,143,147,43,75,212,181,99,128,8,76,19,239]},"announce":[],"urlList":[]}}